# xmcd
#
# Track frame offsets: 
#        182
#        13070
#        29217
#        45987
#        59902
#        71570
#        89362
#        100605
#        113280
#        130690
#        149855
#        165335
#
# Disc length: 2491 seconds
#
# Revision: 2
# Processed by: cddbd v1.5.2PL0 Copyright (c) Steve Scherf et al.
# Submitted via: ExactAudioCopy v1.3
#
DISCID=a309b90c
DTITLE=Ike and Tina Turner - Funky Ball
DYEAR=1991
DGENRE=Soul
TTITLE0=Woke Up This Morning
TTITLE1=Funky Ball
TTITLE2=Ain't Nobody's Business
TTITLE3=It's My Own Fault
TTITLE4=Money
TTITLE5=De Funk
TTITLE6=Driftin'
TTITLE7=Sit And Hold Your Hand
TTITLE8=Tuff Looked Up
TTITLE9=White On White
TTITLE10=No More Lovin'
TTITLE11=That's The City
EXTD=
EXTT0=
EXTT1=
EXTT2=
EXTT3=
EXTT4=
EXTT5=
EXTT6=
EXTT7=
EXTT8=
EXTT9=
EXTT10=
EXTT11=
PLAYORDER=
